<svg xmlns="http://www.w3.org/2000/svg" viewBox="0 0 800 600" width="800" height="600">
  <defs>
    <linearGradient id="bg" x1="0" y1="0" x2="1" y2="1">
      <stop offset="0%" stop-color="#2A2A30"/>
      <stop offset="100%" stop-color="#1F1F25"/>
    </linearGradient>
    <radialGradient id="glow" cx="80%" cy="20%" r="60%">
      <stop offset="0%" stop-color="#FF6A1A" stop-opacity="0.12"/>
      <stop offset="100%" stop-color="#FF6A1A" stop-opacity="0"/>
    </radialGradient>
  </defs>

  <!-- Background — noticeably lighter than card surface #141416 -->
  <rect width="800" height="600" fill="url(#bg)"/>

  <!-- Orange corner glow -->
  <rect width="800" height="600" fill="url(#glow)"/>

  <!-- Large centred silhouette -->
  <path d="M370 80 L370 240 Q310 265 280 310 Q255 350 255 390 Q255 435 290 435 Q310 450 400 450 Q490 450 510 435 Q545 435 545 390 Q545 350 520 310 Q490 265 430 240 L430 80 Z M375 80 L425 80 L425 68 L375 68 Z M430 180 L510 140 L530 155" fill="#FFFFFF" opacity="0.22"/>

  <!-- Category name — dominant element -->
  <text x="400" y="468" font-family="system-ui, -apple-system, 'Segoe UI', sans-serif" font-size="42" font-weight="700" fill="#FFFFFF" opacity="0.95" text-anchor="middle">Evaporation & Distillation</text>

  <!-- Orange divider under name -->
  <line x1="340" y1="484" x2="460" y2="484" stroke="#FF6A1A" stroke-width="2" opacity="0.70"/>

  <!-- Bottom tag -->
  <text x="400" y="554" font-family="monospace, 'Courier New'" font-size="11" letter-spacing="2" fill="#FFFFFF" opacity="0.50" text-anchor="middle">Product photography in progress</text>
</svg>