<svg xmlns="http://www.w3.org/2000/svg" viewBox="0 0 800 600" width="800" height="600">
  <defs>
    <linearGradient id="bg" x1="0" y1="0" x2="1" y2="1">
      <stop offset="0%" stop-color="#2A2A30"/>
      <stop offset="100%" stop-color="#1F1F25"/>
    </linearGradient>
    <radialGradient id="glow" cx="80%" cy="20%" r="60%">
      <stop offset="0%" stop-color="#FF6A1A" stop-opacity="0.12"/>
      <stop offset="100%" stop-color="#FF6A1A" stop-opacity="0"/>
    </radialGradient>
  </defs>

  <!-- Background — noticeably lighter than card surface #141416 -->
  <rect width="800" height="600" fill="url(#bg)"/>

  <!-- Orange corner glow -->
  <rect width="800" height="600" fill="url(#glow)"/>

  <!-- Large centred silhouette -->
  <path d="M385 45 L385 395 Q385 420 400 420 Q415 420 415 395 L415 45 Z M380 80 L358 80 L358 108 L380 108 M380 136 L348 136 L348 172 L380 172 M380 220 L330 220 L330 270 L380 270 M420 80 L442 80 L442 52 L420 52" fill="#FFFFFF" opacity="0.22"/>

  <!-- Category name — dominant element -->
  <text x="400" y="468" font-family="system-ui, -apple-system, 'Segoe UI', sans-serif" font-size="42" font-weight="700" fill="#FFFFFF" opacity="0.95" text-anchor="middle">Liquid Handling</text>

  <!-- Orange divider under name -->
  <line x1="340" y1="484" x2="460" y2="484" stroke="#FF6A1A" stroke-width="2" opacity="0.70"/>

  <!-- Bottom tag -->
  <text x="400" y="554" font-family="monospace, 'Courier New'" font-size="11" letter-spacing="2" fill="#FFFFFF" opacity="0.50" text-anchor="middle">Product photography in progress</text>
</svg>