<svg xmlns="http://www.w3.org/2000/svg" viewBox="0 0 800 600" width="800" height="600">
  <defs>
    <linearGradient id="bg" x1="0" y1="0" x2="1" y2="1">
      <stop offset="0%" stop-color="#2A2A30"/>
      <stop offset="100%" stop-color="#1F1F25"/>
    </linearGradient>
    <radialGradient id="glow" cx="80%" cy="20%" r="60%">
      <stop offset="0%" stop-color="#FF6A1A" stop-opacity="0.12"/>
      <stop offset="100%" stop-color="#FF6A1A" stop-opacity="0"/>
    </radialGradient>
  </defs>

  <!-- Background — noticeably lighter than card surface #141416 -->
  <rect width="800" height="600" fill="url(#bg)"/>

  <!-- Orange corner glow -->
  <rect width="800" height="600" fill="url(#glow)"/>

  <!-- Large centred silhouette -->
  <path d="M400 110 m-190 0 a190 190 0 1 0 380 0 a190 190 0 1 0-380 0 M400 110 m-120 0 a120 120 0 1 0 240 0 a120 120 0 1 0-240 0 M400 110 L452 28 M400 110 L348 145 M400 110 m-14 0 a14 14 0 0 0 28 0 a14 14 0 0 0-28 0" fill="#FFFFFF" opacity="0.22"/>

  <!-- Category name — dominant element -->
  <text x="400" y="468" font-family="system-ui, -apple-system, 'Segoe UI', sans-serif" font-size="42" font-weight="700" fill="#FFFFFF" opacity="0.95" text-anchor="middle">Measurement & Analysis</text>

  <!-- Orange divider under name -->
  <line x1="340" y1="484" x2="460" y2="484" stroke="#FF6A1A" stroke-width="2" opacity="0.70"/>

  <!-- Bottom tag -->
  <text x="400" y="554" font-family="monospace, 'Courier New'" font-size="11" letter-spacing="2" fill="#FFFFFF" opacity="0.50" text-anchor="middle">Product photography in progress</text>
</svg>